<?xml version="1.0" encoding="UTF-8" standalone="no"?>
<!-- Uploaded to: SVG Repo, www.svgrepo.com, Generator: SVG Repo Mixer Tools -->

<svg
   fill="#000000"
   width="800"
   height="800"
   viewBox="0 0 32 32"
   version="1.1"
   id="svg1"
   sodipodi:docname="trashcan-svgrepo-com.svg"
   xmlns:inkscape="http://www.inkscape.org/namespaces/inkscape"
   xmlns:sodipodi="http://sodipodi.sourceforge.net/DTD/sodipodi-0.dtd"
   xmlns="http://www.w3.org/2000/svg"
   xmlns:svg="http://www.w3.org/2000/svg">
  <defs
     id="defs1" />
  <sodipodi:namedview
     id="namedview1"
     pagecolor="#505050"
     bordercolor="#ffffff"
     borderopacity="1"
     inkscape:showpageshadow="0"
     inkscape:pageopacity="0"
     inkscape:pagecheckerboard="1"
     inkscape:deskcolor="#505050"
     showgrid="false" />
  <title
     id="title1">trashcan</title>
  <path
     d="m 8,26 c 0,1.656 1.343,3 3,3 h 10 c 1.656,0 3,-1.344 3,-3 L 26,10 H 6 Z M 19,13 h 2 v 13 h -2 z m -4,0 h 2 v 13 h -2 z m -4,0 h 2 V 26 H 11 Z M 25.5,6 H 19 C 19,6 18.552,4 18,4 H 14 C 13.447,4 13,6 13,6 H 6.5 C 5.671,6 5,6.671 5,7.5 5,8.329 5,9 5,9 H 27 C 27,9 27,8.329 27,7.5 27,6.671 26.328,6 25.5,6 Z"
     id="path1"
     style="fill:#ffb7c5;fill-opacity:1" />
</svg>
