<?xml version="1.0" encoding="UTF-8" standalone="no"?>
<!-- Uploaded to: SVG Repo, www.svgrepo.com, Generator: SVG Repo Mixer Tools -->

<svg
   fill="#000000"
   width="800"
   height="800"
   viewBox="0 0 1920 1920"
   version="1.1"
   id="svg1"
   sodipodi:docname="settings-svgrepo-com.svg"
   xmlns:inkscape="http://www.inkscape.org/namespaces/inkscape"
   xmlns:sodipodi="http://sodipodi.sourceforge.net/DTD/sodipodi-0.dtd"
   xmlns="http://www.w3.org/2000/svg"
   xmlns:svg="http://www.w3.org/2000/svg">
  <defs
     id="defs1" />
  <sodipodi:namedview
     id="namedview1"
     pagecolor="#505050"
     bordercolor="#ffffff"
     borderopacity="1"
     inkscape:showpageshadow="0"
     inkscape:pageopacity="0"
     inkscape:pagecheckerboard="1"
     inkscape:deskcolor="#505050"
     showgrid="false" />
  <path
     d="m 1703.534,960 c 0,-41.788 -3.84,-84.48 -11.633,-127.172 l 210.184,-182.174 -199.454,-340.856 -265.186,88.433 c -66.974,-55.567 -143.323,-99.389 -223.85,-128.415 L 1158.932,0 H 761.152 L 706.49,269.704 C 625.06,298.842 550.067,341.986 482.528,398.118 L 217.455,309.798 18,650.654 228.184,832.828 C 220.39,875.52 216.55,918.212 216.55,960 c 0,41.788 3.84,84.48 11.633,127.172 L 18,1269.346 217.454,1610.202 482.64,1521.769 c 66.974,55.567 143.322,99.389 223.85,128.415 L 761.152,1920 h 397.779 l 54.663,-269.704 c 81.318,-29.138 156.424,-72.282 223.963,-128.414 l 265.073,88.433 199.454,-340.856 -210.184,-182.174 c 7.793,-42.805 11.633,-85.497 11.633,-127.285 m -743.492,395.294 c -217.976,0 -395.294,-177.318 -395.294,-395.294 0,-217.976 177.318,-395.294 395.294,-395.294 217.977,0 395.294,177.318 395.294,395.294 0,217.976 -177.317,395.294 -395.294,395.294"
     fill-rule="evenodd"
     id="path1"
     style="fill:#ffb7c5;fill-opacity:1" />
</svg>
