<?xml version="1.0" encoding="UTF-8" standalone="no"?>
<!-- Uploaded to: SVG Repo, www.svgrepo.com, Generator: SVG Repo Mixer Tools -->

<svg
   version="1.0"
   id="Layer_1"
   width="800"
   height="800"
   viewBox="0 0 64 64"
   enable-background="new 0 0 64 64"
   xml:space="preserve"
   sodipodi:docname="box-svgrepo-com.svg"
   xmlns:inkscape="http://www.inkscape.org/namespaces/inkscape"
   xmlns:sodipodi="http://sodipodi.sourceforge.net/DTD/sodipodi-0.dtd"
   xmlns="http://www.w3.org/2000/svg"
   xmlns:svg="http://www.w3.org/2000/svg"><defs
   id="defs2" /><sodipodi:namedview
   id="namedview2"
   pagecolor="#505050"
   bordercolor="#ffffff"
   borderopacity="1"
   inkscape:showpageshadow="0"
   inkscape:pageopacity="0"
   inkscape:pagecheckerboard="1"
   inkscape:deskcolor="#505050"
   showgrid="false" />
<g
   id="g2"
   transform="translate(-0.00784)">
	<path
   fill="#231f20"
   d="M 60.00784,7.3823056 H 4.0078399 c -2.211,0 -3.9999999,1.789 -3.9999999,4.0000004 v 8 c 0,2.211 1.7889999,4 3.9999999,4 H 60.00784 c 2.211,0 4,-1.789 4,-4 v -8 c 0,-2.2110004 -1.789,-4.0000004 -4,-4.0000004 z"
   id="path1"
   style="fill:#ffb7c5;fill-opacity:1" />
	<path
   fill="#231f20"
   d="m 4,24 v 36 c 0,2.211 1.789,4 4,4 h 48 c 2.211,0 4,-1.789 4,-4 V 24 Z M 40,40 H 24 c -2.211,0 -4,-1.789 -4,-4 0,-2.211 1.789,-4 4,-4 h 16 c 2.211,0 4,1.789 4,4 0,2.211 -1.789,4 -4,4 z"
   id="path2"
   style="fill:#ffb7c5;fill-opacity:1" />
</g>
</svg>
