<?xml version="1.0" encoding="UTF-8" standalone="no"?>
<!-- Uploaded to: SVG Repo, www.svgrepo.com, Generator: SVG Repo Mixer Tools -->

<svg
   width="800"
   height="800"
   viewBox="0 0 24 24"
   fill="none"
   version="1.1"
   id="svg2"
   sodipodi:docname="log-off-svgrepo-com.svg"
   xmlns:inkscape="http://www.inkscape.org/namespaces/inkscape"
   xmlns:sodipodi="http://sodipodi.sourceforge.net/DTD/sodipodi-0.dtd"
   xmlns="http://www.w3.org/2000/svg"
   xmlns:svg="http://www.w3.org/2000/svg">
  <defs
     id="defs2" />
  <sodipodi:namedview
     id="namedview2"
     pagecolor="#505050"
     bordercolor="#ffffff"
     borderopacity="1"
     inkscape:showpageshadow="0"
     inkscape:pageopacity="0"
     inkscape:pagecheckerboard="1"
     inkscape:deskcolor="#505050"
     showgrid="false" />
  <path
     d="M 13,4.00881 C 13.0002,3.45653 12.5527,3.00864 12.0004,3.00842 11.4481,3.00821 11.0002,3.45575 11,4.00803 l -0.0032,8.00347 c -2e-4,0.5523 0.4474,1.0002 0.9997,1.0004 0.5522,2e-4 1.0001,-0.4474 1.0003,-0.9996 z"
     fill="#000000"
     id="path1"
     style="fill:#ffb7c5;fill-opacity:1" />
  <path
     d="M 4,12.9916 C 4,10.7824 4.89541,8.78247 6.34308,7.33476 L 7.7573,8.74898 C 6.67155,9.83476 6,11.3347 6,12.9916 c 0,3.3137 2.68629,6 6,6 3.3137,0 6,-2.6863 6,-6 0,-1.6569 -0.6716,-3.15691 -1.7574,-4.24269 L 17.6568,7.33469 C 19.1046,8.78241 20,10.7824 20,12.9916 c 0,4.4182 -3.5817,8 -8,8 -4.41828,0 -8,-3.5818 -8,-8 z"
     fill="#000000"
     id="path2"
     style="fill:#ffb7c5;fill-opacity:1" />
</svg>
