<?xml version="1.0" encoding="utf-8"?>
<!-- Uploaded to: SVG Repo, www.svgrepo.com, Generator: SVG Repo Mixer Tools -->
<svg fill="#000000" height="800px" width="800px" version="1.2" baseProfile="tiny" id="Layer_1" xmlns="http://www.w3.org/2000/svg" xmlns:xlink="http://www.w3.org/1999/xlink"
	  viewBox="0 0 256 256" xml:space="preserve">
<path d="M171.2,70.6c-2.2-1.5-4.8-2.4-7.5-2.4h0.8v-18h-19.2v-0.1l-6.8-34C137.8,12,134.2,9,130,9h-4.8c-4.1,0.1-7.6,3.1-8.4,7.1
	l-6.9,34v0.1H90.7v18h0.4c-3.4,0.2-6.5,1.6-8.8,3.9c-2.6,2.6-4.1,6-4.1,9.7v151.6c0,4.5,2.2,8.7,5.8,11.2c2.3,1.6,5,2.5,7.7,2.5
	h71.8c3.7,0,7.1-1.4,9.6-4c2.6-2.6,4-6,4-9.6V81.8C177,77.4,174.8,73.2,171.2,70.6z M101.9,235.5h-12V80.1h12V235.5z"/>
</svg>