<?xml version="1.0" encoding="UTF-8" standalone="no"?>
<!-- Uploaded to: SVG Repo, www.svgrepo.com, Generator: SVG Repo Mixer Tools -->

<svg
   fill="#000000"
   width="800"
   height="800"
   viewBox="0 0 32 32"
   id="icon"
   version="1.1"
   sodipodi:docname="connection-signal-svgrepo-com.svg"
   xmlns:inkscape="http://www.inkscape.org/namespaces/inkscape"
   xmlns:sodipodi="http://sodipodi.sourceforge.net/DTD/sodipodi-0.dtd"
   xmlns="http://www.w3.org/2000/svg"
   xmlns:svg="http://www.w3.org/2000/svg">
  <sodipodi:namedview
     id="namedview4"
     pagecolor="#505050"
     bordercolor="#ffffff"
     borderopacity="1"
     inkscape:showpageshadow="0"
     inkscape:pageopacity="0"
     inkscape:pagecheckerboard="1"
     inkscape:deskcolor="#505050" />
  <defs
     id="defs1">
    <style
       id="style1">.cls-1{fill:none;}</style>
  </defs>
  <title
     id="title1">mobile-data</title>
  <rect
     x="15"
     y="12"
     width="2"
     height="18"
     id="rect1"
     style="fill:#ffb7c5;fill-opacity:1" />
  <path
     d="m 11.33,18.22 a 7,7 0 0 1 0,-10.44 l 1.34,1.49 a 5,5 0 0 0 0,7.46 z"
     id="path1"
     style="fill:#ffb7c5;fill-opacity:1" />
  <path
     d="m 20.67,18.22 -1.34,-1.49 a 5,5 0 0 0 0,-7.46 l 1.34,-1.49 a 7,7 0 0 1 0,10.44 z"
     id="path2"
     style="fill:#ffb7c5;fill-opacity:1" />
  <path
     d="m 8.4,21.8 a 11,11 0 0 1 0,-17.6 l 1.2,1.6 a 9,9 0 0 0 0,14.4 z"
     id="path3"
     style="fill:#ffb7c5;fill-opacity:1" />
  <path
     d="m 23.6,21.8 -1.2,-1.6 a 9,9 0 0 0 0,-14.4 l 1.2,-1.6 a 11,11 0 0 1 0,17.6 z"
     id="path4"
     style="fill:#ffb7c5;fill-opacity:1" />
  <rect
     id="_Transparent_Rectangle_"
     data-name="&lt;Transparent Rectangle&gt;"
     class="cls-1"
     width="32"
     height="32"
     x="0"
     y="0" />
</svg>
