<?xml version="1.0" encoding="UTF-8" standalone="no"?>
<!-- Uploaded to: SVG Repo, www.svgrepo.com, Generator: SVG Repo Mixer Tools -->

<svg
   width="800"
   height="800"
   viewBox="0 0 24 24"
   fill="none"
   version="1.1"
   id="svg1"
   sodipodi:docname="refresh-cw-alt-2-svgrepo-com.svg"
   xmlns:inkscape="http://www.inkscape.org/namespaces/inkscape"
   xmlns:sodipodi="http://sodipodi.sourceforge.net/DTD/sodipodi-0.dtd"
   xmlns="http://www.w3.org/2000/svg"
   xmlns:svg="http://www.w3.org/2000/svg">
  <defs
     id="defs1" />
  <sodipodi:namedview
     id="namedview1"
     pagecolor="#505050"
     bordercolor="#ffffff"
     borderopacity="1"
     inkscape:showpageshadow="0"
     inkscape:pageopacity="0"
     inkscape:pagecheckerboard="1"
     inkscape:deskcolor="#505050"
     showgrid="false" />
  <path
     d="M 11,2 11.923611,2.9215093 13,3.99545 12.9408,4.05474 M 13,18.0001 l -2,1.9107 0.0297,0.0309 M 12.9408,4.05474 11,6 M 12.9408,4.05474 C 12.6323,4.01859 12.3183,4 12,4 10.948316,4 9.9440309,4.2029342 9.0241657,4.5717805 8.0257622,4.9721189 7.1268101,5.5679101 6.3746474,6.311816 5.7009805,6.9780878 5.1450638,7.7631729 4.7409074,8.633061 4.2654291,9.6564593 4,10.797232 4,12 c 0,2.5264 1.17107,4.7793 3,6.2454 M 17,5.75463 c 0.928443,0.7442774 1.687365,1.6913078 2.209612,2.7739459 C 19.716117,9.5785799 20,10.75614 20,12 c 0,4.4183 -3.5817,8 -8,8 -0.3284,0 -0.6523,-0.0198 -0.9703,-0.0583 M 13,22.0001 11.0297,19.9417"
     stroke="#000000"
     stroke-width="2"
     stroke-linecap="round"
     stroke-linejoin="round"
     id="path1"
     sodipodi:nodetypes="ccccccccccsssssccsssccc"
     style="fill:none;stroke:#ffb7c5;stroke-opacity:1" />
</svg>
